<svg fill="#000000" version="1.1" id="Capa_1" xmlns="http://www.w3.org/2000/svg" xmlns:xlink="http://www.w3.org/1999/xlink" 
	 width="800px" height="800px" viewBox="0 0 42.605 42.605"
	 xml:space="preserve">
<g>
	<path d="M42.605,16.958c0-1.082-1.08-1.956-2.41-1.956H22.48L13.738,3.816c0,0-0.468,0.367-1.047,0.818
		c-0.577,0.453-0.383,1.669,0.435,2.718l5.981,7.65H2.409C1.078,15.001,0,15.875,0,16.958v1.955h42.605
		C42.605,18.914,42.605,18.04,42.605,16.958z"/>
	<path d="M33.648,38.79c2.66,0,4.817-2.159,4.817-4.815l2.408-13.05H6.549c-2.66,0-4.817,2.157-4.817,4.817L4.14,38.79H33.648z
		 M29.73,26.345c0-1.33,0.967-2.41,2.158-2.41h2.159v8.834c0,1.33-0.967,2.408-2.159,2.408H29.73V26.345z M22.203,26.345
		c0-1.33,0.968-2.41,2.158-2.41h2.16v8.834c0,1.33-0.967,2.408-2.16,2.408h-2.158V26.345z M14.677,26.345
		c0-1.33,0.967-2.41,2.158-2.41h2.159v8.834c0,1.33-0.967,2.408-2.159,2.408h-2.158V26.345z M7.149,26.345
		c0-1.33,0.967-2.41,2.159-2.41h2.158v8.834c0,1.33-0.967,2.408-2.158,2.408H7.149V26.345z"/>
</g>
</svg>